# Blender v2.92.0 OBJ File: 'ghost_trap.blend'
# www.blender.org
mtllib ghost_trap_door.mtl
o Door_Cylinder.003
v 0.000000 0.000098 -0.238003
v 0.000000 0.000098 0.238003
v 0.090005 0.000098 0.238003
v 0.090005 0.000098 -0.238003
v 0.000000 -0.015112 0.238003
v 0.000000 -0.015112 -0.238003
v 0.090005 -0.015112 0.238003
v 0.090005 -0.015112 -0.238003
v 0.000000 0.000098 0.000000
v 0.090005 0.000098 0.000000
v 0.000000 -0.015112 0.000000
v 0.090005 -0.015112 0.000000
vt 0.705618 0.715787
vt 0.705618 0.962693
vt 0.052718 0.962693
vt 0.052718 0.715787
vt 0.415503 0.699223
vt 0.415503 0.046322
vt 0.662410 0.046322
vt 0.662409 0.699223
vt 0.010993 0.962693
vt 0.010993 0.715787
vt 0.986803 0.699222
vt 0.986803 0.740947
vt 0.739897 0.740947
vt 0.739897 0.699222
vt 0.704134 0.699223
vt 0.704134 0.046322
vt 0.009290 0.046322
vt 0.051015 0.046322
vt 0.051015 0.699223
vt 0.009291 0.699223
vt 0.373778 0.046322
vt 0.373778 0.699223
vt 0.339646 0.699223
vt 0.297921 0.699223
vt 0.297922 0.046322
vt 0.339646 0.046322
vt 0.739897 0.046322
vt 0.986803 0.046322
vn 0.0000 1.0000 0.0000
vn 0.0000 -1.0000 0.0000
vn 0.0000 0.0000 1.0000
vn 0.0000 0.0000 -1.0000
vn -1.0000 0.0000 0.0000
vn 1.0000 0.0000 0.0000
usemtl Material.005
s off
f 10/1/1 9/2/1 2/3/1 3/4/1
f 12/5/2 7/6/2 5/7/2 11/8/2
f 2/3/3 5/9/3 7/10/3 3/4/3
f 4/11/4 8/12/4 6/13/4 1/14/4
f 9/15/5 11/8/5 5/7/5 2/16/5
f 10/17/6 12/18/6 8/19/6 4/20/6
f 3/21/6 7/6/6 12/5/6 10/22/6
f 1/23/5 6/24/5 11/25/5 9/26/5
f 8/19/2 12/18/2 11/25/2 6/24/2
f 4/11/1 1/14/1 9/27/1 10/28/1
